<?xml version="1.0" standalone="no"?>
<svg xmlns="http://www.w3.org/2000/svg" width="3480" height="1760" viewBox="0 0 3480 1760" preserveAspectRatio="xMidYMid meet">
    <title>ARTTY Black Logo</title>
    <metadata> © 2026 MI-7 | Division 7 Holding. All rights reserved.</metadata>
    <g transform="translate(0.000000,1760.000000) scale(0.100000,-0.100000)" fill="#000000" stroke="none">
        <path d="M2920 11535 c-19 -7 -49 -14 -66 -14 -34 -1 -250 -58 -344 -90 -144
        -50 -392 -182 -485 -257 -165 -135 -261 -327 -297 -594 -10 -75 -12 -578 -11
        -2328 0 -1282 5 -2238 10 -2243 8 -8 1291 -15 1299 -6 2 2 6 390 8 863 3 472
        5 878 6 902 l0 42 1549 0 c862 0 1552 -4 1555 -9 3 -4 6 -407 7 -894 2 -488 6
        -892 10 -899 7 -10 137 -13 641 -13 348 0 641 3 651 7 16 7 17 135 17 2486 l0
        2480 -26 68 c-48 130 -127 249 -210 318 -61 51 -192 129 -241 144 -194 57 24
        52 -2107 51 -1594 0 -1937 -3 -1966 -14z m3201 -1163 c9 -1 20 -10 24 -19 9
        -23 18 -1243 9 -1306 l-6 -47 -1543 2 c-1132 2 -1547 6 -1555 14 -8 8 -12 171
        -12 582 1 557 1 571 21 611 30 57 77 109 125 134 l41 22 1360 5 c1435 5 1510
        5 1536 2z"/>
        <path d="M8785 11540 c-55 -4 -118 -14 -140 -22 -79 -30 -202 -97 -252 -137
        -73 -57 -147 -175 -183 -291 l-30 -94 0 -2486 c0 -1367 4 -2490 8 -2497 9 -14
        1285 -24 1298 -10 4 4 7 414 7 911 -2 686 1 908 10 920 11 14 96 16 886 17
        549 1 876 -2 880 -8 3 -5 53 -69 111 -142 166 -209 171 -215 250 -318 41 -54
        133 -172 205 -262 188 -237 522 -672 736 -960 48 -64 95 -126 105 -138 l19
        -23 798 -1 c477 -1 803 3 808 8 11 11 -9 40 -90 135 -227 267 -243 288 -507
        636 -47 62 -109 138 -137 170 -75 83 -140 161 -247 297 -52 66 -125 156 -163
        200 -38 44 -100 121 -137 170 -38 50 -96 122 -129 160 -59 68 -76 110 -48 120
        6 3 44 9 82 14 133 17 309 68 463 133 115 48 150 67 234 130 140 103 214 210
        270 388 l23 75 -1 1150 0 1150 -27 72 c-35 99 -86 172 -192 278 -74 74 -109
        99 -190 142 -132 68 -229 94 -395 105 -156 11 -4173 19 -4325 8z m3682 -1181
        c58 -25 87 -50 121 -109 l26 -44 -2 -509 c-2 -426 -5 -514 -18 -538 -24 -47
        -82 -98 -142 -125 l-57 -26 -1438 4 c-1102 4 -1441 8 -1450 17 -9 9 -11 168
        -10 668 1 361 6 660 10 664 12 12 245 14 1665 17 1240 2 1247 2 1295 -19z"/>
        <path d="M14632 11538 c-19 -19 -17 -1171 1 -1187 10 -8 320 -12 1108 -13
        l1094 -3 2 -2159 c2 -1721 5 -2161 15 -2168 17 -10 1279 -10 1295 0 10 7 13
        455 15 2168 l3 2159 1105 5 1105 5 5 180 c7 247 -3 1001 -13 1012 -5 4 -1294
        9 -2866 11 -2223 2 -2860 -1 -2869 -10z"/>
        <path d="M21055 11538 c-3 -7 -4 -278 -3 -603 l3 -590 1112 -3 1113 -2 2
        -2168 3 -2167 650 0 650 0 5 2165 5 2165 1100 5 c605 3 1102 6 1103 8 8 5 -4
        1181 -11 1189 -5 4 -1295 9 -2868 11 -2306 2 -2860 0 -2864 -10z"/>
        <path d="M27487 11543 c-9 -8 -8 -1573 1 -1595 4 -10 158 -170 342 -356 184
        -186 453 -460 597 -608 144 -148 464 -473 711 -723 l450 -453 -5 -887 c-4
        -753 -3 -889 9 -904 13 -18 43 -19 647 -18 463 1 637 4 648 12 11 10 13 157
        13 920 -1 500 3 915 7 923 20 35 2048 2076 2063 2076 4 0 14 15 21 33 12 26
        14 172 14 799 0 421 -4 770 -8 775 -5 4 -304 10 -664 11 -539 3 -657 1 -664
        -10 -5 -7 -9 -282 -9 -610 0 -567 -1 -599 -18 -615 -147 -140 -609 -589 -827
        -804 -154 -151 -320 -313 -370 -358 -49 -46 -118 -112 -152 -147 -34 -35 -66
        -64 -72 -64 -5 0 -33 27 -63 61 -29 34 -141 143 -248 243 -107 101 -305 293
        -440 427 -135 134 -339 333 -455 443 l-210 198 -5 617 -5 616 -651 3 c-358 1
        -654 -1 -657 -5z"/>
    </g>
</svg>
